<svg width="25" height="24" viewBox="0 0 25 24" fill="none" xmlns="http://www.w3.org/2000/svg">
<g clip-path="url(#clip0_14_1829)">
<path fill-rule="evenodd" clip-rule="evenodd" d="M16.1384 24.0001H4.49245C5.01445 20.9651 5.38945 17.8381 4.07045 15.9721C2.40445 13.6151 1.64045 11.2301 1.62145 9.08912C1.57645 3.89912 5.85245 -0.0248812 11.8244 0.000118786C19.0604 0.0301188 21.1524 6.15612 21.5974 7.94312C21.9374 9.31212 20.6994 9.81212 21.4314 10.6451C22.0274 11.3241 22.4664 12.0091 23.2204 12.8221C23.5124 13.1371 23.6254 13.4681 23.6214 13.7651C23.6154 14.1991 23.3304 14.5631 22.8734 14.7231C22.4444 14.8731 22.1134 15.0431 21.6584 15.1661C21.5134 16.3261 21.1374 17.7381 20.8604 18.7231C20.1234 21.3431 17.9644 19.7821 16.9794 21.3301C16.5534 21.9981 16.3394 23.0681 16.1384 24.0001ZM12.2944 5.00012H10.9484C10.7054 5.68112 10.6364 6.12212 10.1064 6.34112C9.57645 6.56112 9.21845 6.30012 8.56145 5.98812L7.60945 6.94012C7.92045 7.59412 8.18245 7.95512 7.96245 8.48512C7.74345 9.01512 7.30245 9.08412 6.62145 9.32612V10.6731C7.30145 10.9151 7.74345 10.9851 7.96245 11.5151C8.18445 12.0491 7.91545 12.4171 7.60945 13.0591L8.56145 14.0111C9.21345 13.7021 9.57645 13.4381 10.1064 13.6581V13.6591C10.6354 13.8781 10.7054 14.3161 10.9484 15.0001H12.2944C12.5374 14.3181 12.6074 13.8791 13.1394 13.6571H13.1404C13.6664 13.4381 14.0234 13.6991 14.6814 14.0111L15.6334 13.0591C15.3234 12.4081 15.0604 12.0451 15.2794 11.5151C15.4984 10.9861 15.9414 10.9151 16.6214 10.6731V9.32612C15.9334 9.08212 15.4984 9.01312 15.2804 8.48512C15.0604 7.95512 15.3214 7.59512 15.6334 6.94012L14.6814 5.98812C14.0304 6.29812 13.6674 6.56112 13.1364 6.34112C12.6074 6.12212 12.5384 5.68412 12.2944 5.00012ZM11.6214 11.6671C10.7014 11.6671 9.95445 10.9201 9.95445 10.0001C9.95445 9.07912 10.7014 8.33312 11.6214 8.33312C12.5414 8.33312 13.2884 9.07912 13.2884 10.0001C13.2884 10.9201 12.5414 11.6671 11.6214 11.6671Z" fill="black"/>
</g>
<defs>
<clipPath id="clip0_14_1829">
<rect width="24" height="24" fill="white" transform="translate(0.621094)"/>
</clipPath>
</defs>
</svg>
