<svg width="25" height="22" viewBox="0 0 25 22" fill="none" xmlns="http://www.w3.org/2000/svg">
<path fill-rule="evenodd" clip-rule="evenodd" d="M14.4 18.49L13.934 20.229L1.36505 16.851C0.918047 16.732 0.623047 16.328 0.623047 15.886L0.658047 15.626C1.28405 13.288 2.87805 7.34 3.50505 5.001C3.64805 4.468 4.19605 4.151 4.72905 4.294C7.11005 4.932 12.621 6.414 17.3 7.665L16.827 9.433L17.792 9.695L18.266 7.923L23.879 9.424C24.325 9.544 24.62 9.948 24.62 10.39L24.586 10.649L21.739 21.259C21.619 21.705 21.214 22 20.773 22L20.513 21.966L14.9 20.488L15.365 18.752L14.4 18.49ZM20.065 19.791L20.324 18.825L17.608 18.108L17.349 19.074L20.065 19.791ZM14.659 17.524L15.624 17.785L16.068 16.127L15.103 15.865L14.659 17.524ZM21.101 15.927L21.36 14.961L18.643 14.244L18.384 15.21L21.101 15.927ZM15.362 14.899L16.327 15.161L16.83 13.285L15.865 13.024L15.362 14.899ZM21.619 13.995L21.878 13.029L19.161 12.312L18.902 13.278L21.619 13.995ZM16.124 12.058L17.088 12.319L17.533 10.66L16.568 10.399L16.124 12.058ZM22.136 12.063L22.395 11.097L19.678 10.381L19.42 11.346L22.136 12.063ZM8.05305 3.382L20.581 0.034L20.84 0C21.282 0 21.686 0.294 21.806 0.741L23.639 7.569L8.05305 3.382Z" fill="black"/>
</svg>
