<svg width="271" height="19" viewBox="0 0 271 19" fill="none" xmlns="http://www.w3.org/2000/svg">
<g clip-path="url(#clip0_95_1459)">
<path d="M20.4503 18.8113H9.96333C7.26465 18.8113 5.03315 17.9057 3.26884 16.0946C1.50453 14.278 0.619629 11.9891 0.619629 9.22796C0.619629 6.46685 1.49354 4.26685 3.24136 2.57796C4.98918 0.894629 7.23167 0.05574 9.96333 0.05574H20.4503V3.32241H9.96333C8.18803 3.32241 6.72601 3.90018 5.57729 5.05018C4.42856 6.20574 3.85145 7.68352 3.85145 9.50018C3.85145 11.3169 4.42856 12.7502 5.57729 13.8668C6.72601 14.9835 8.18803 15.5391 9.96333 15.5391H20.4503V18.8057V18.8113ZM45.2825 18.8113H40.5007L35.3122 13.5391H28.3265V10.3002H37.0216C38.2198 10.3002 39.2256 10.0335 40.0391 9.50018C40.9624 8.87796 41.4241 7.98907 41.4241 6.83907C41.4241 4.49463 39.9566 3.32241 37.0216 3.32241H26.4247V18.8113H23.1929V0.05574H36.5049C38.8958 0.05574 40.825 0.577962 42.2925 1.62241C43.9744 2.8113 44.8208 4.5613 44.8208 6.86685C44.8208 8.44463 44.3317 9.79463 43.3533 10.9335C42.4464 11.9946 41.2153 12.7391 39.6598 13.1557L45.2825 18.8113ZM68.5374 0.05574L59.3311 12.6057V18.8113H56.1267V12.5502L46.6676 0.05574H50.8228L57.8086 9.28352L64.3547 0.05574H68.5374ZM90.7314 13.0169C90.7314 14.7946 90.1048 16.2224 88.8572 17.3002C87.6645 18.3057 86.1695 18.8113 84.3777 18.8113H70.2247V15.5446H84.3777C85.2626 15.5446 86.0321 15.3446 86.6861 14.9391C87.4281 14.4446 87.8019 13.778 87.8019 12.9335C87.8019 12.0891 87.4171 11.4391 86.6586 10.9835C86.0266 10.6002 85.2626 10.4057 84.3777 10.4057H75.6276C74.0172 10.4057 72.6706 9.95574 71.5823 9.06129C70.4226 8.08907 69.8455 6.8113 69.8455 5.21685C69.8455 3.62241 70.4226 2.37241 71.5823 1.40018C72.6706 0.50574 74.0172 0.05574 75.6276 0.05574H89.6211V3.32241H75.6276C75.012 3.32241 74.4843 3.49463 74.0556 3.84463C73.6214 4.18907 73.4016 4.6613 73.4016 5.24463C73.4016 5.82796 73.6214 6.31685 74.0556 6.64463C74.4898 6.97241 75.0175 7.13907 75.6276 7.13907H84.3777C86.1695 7.13907 87.6645 7.6613 88.8572 8.70574C90.1048 9.80574 90.7314 11.2391 90.7314 13.0169ZM110.265 3.32241H102.961V18.8113H99.7563V3.32241H92.4188V0.05574H110.265V3.32241ZM130.371 18.8113L126.215 18.7835L123.094 13.5391H114.294L116.251 10.3002H121.164L117.933 4.88907L109.567 18.7835H105.412L115.492 1.83907C115.745 1.40018 116.097 0.994629 116.547 0.627962C117.092 0.20574 117.581 -0.00537109 118.015 -0.00537109C118.488 -0.00537109 118.977 0.194629 119.477 0.600184C119.917 0.950184 120.268 1.3613 120.538 1.83352L130.371 18.8057V18.8113ZM147.107 18.8113H131.107V0.05574H134.339V15.5446H147.107V18.8113Z" fill="#808285"/>
<path d="M189.186 18.8112H173.159V0.0556641H189.186V3.32233H176.391V15.539H189.186V18.8057V18.8112ZM170.224 18.8112H158.435C155.736 18.8112 153.504 17.9057 151.74 16.0946C149.976 14.2834 149.091 11.9946 149.091 9.22789C149.091 6.46122 149.965 4.26678 151.713 2.58344C153.46 0.900109 155.703 0.0556641 158.44 0.0556641H168.927V3.32233H158.44C156.665 3.32233 155.203 3.90011 154.054 5.05011C152.9 6.20566 152.328 7.68344 152.328 9.50011C152.328 11.3168 152.905 12.7501 154.054 13.8668C155.203 14.9834 156.665 15.539 158.44 15.539H166.998V11.4501H158.198V8.45566H170.235V18.8057L170.224 18.8112ZM188.345 10.9279H177.748V7.66122H188.345V10.9279ZM211.298 17.189C211.298 18.4001 210.891 19.0001 210.072 19.0001C209.473 19.0001 208.808 18.6279 208.066 17.8723L196.167 5.789V18.8057H192.962V1.67233C192.962 1.23344 193.078 0.850108 193.314 0.533442C193.55 0.21122 193.886 0.0556641 194.32 0.0556641C194.919 0.0556641 195.535 0.377886 196.167 1.01678L208.066 13.0723V0.0556641H211.298V17.189ZM219.421 18.8112H216.19V0.0556641H219.421V18.8112ZM243.193 18.8112H232.706C230.007 18.8112 227.776 17.9057 226.006 16.0946C224.242 14.2834 223.357 11.9946 223.357 9.22789C223.357 6.46122 224.231 4.26678 225.978 2.58344C227.726 0.900109 229.969 0.0556641 232.706 0.0556641H243.193V3.32233H232.706C230.931 3.32233 229.469 3.90011 228.32 5.05011C227.166 6.20566 226.594 7.68344 226.594 9.50011C226.594 11.3168 227.171 12.7501 228.32 13.8668C229.469 14.9834 230.931 15.539 232.706 15.539H243.193V18.8057V18.8112ZM266.118 13.0168C266.118 14.7946 265.491 16.2223 264.244 17.3001C263.046 18.3057 261.556 18.8112 259.759 18.8112H245.606V15.5446H259.759C260.644 15.5446 261.419 15.3446 262.073 14.939C262.809 14.4446 263.183 13.7779 263.183 12.9334C263.183 12.089 262.798 11.439 262.04 10.9834C261.408 10.6001 260.644 10.4057 259.753 10.4057H251.009C249.398 10.4057 248.046 9.95566 246.963 9.06122C245.804 8.089 245.221 6.81122 245.221 5.21677C245.221 3.62233 245.798 2.37233 246.963 1.40011C248.052 0.505664 249.398 0.0556641 251.009 0.0556641H264.997V3.32233H251.009C250.393 3.32233 249.865 3.49455 249.431 3.84455C248.997 4.189 248.777 4.66122 248.777 5.24455C248.777 5.82789 248.997 6.31677 249.431 6.64455C249.865 6.97233 250.393 7.139 251.009 7.139H259.753C261.545 7.139 263.04 7.66122 264.238 8.70566C265.486 9.80566 266.112 11.239 266.112 13.0168H266.118Z" fill="white"/>
<path d="M270.619 1.77789C270.619 2.75566 269.861 3.52233 268.872 3.52233C267.882 3.52233 267.113 2.75566 267.113 1.77789C267.113 0.800109 267.893 0.0556641 268.872 0.0556641C269.85 0.0556641 270.619 0.822331 270.619 1.77789ZM267.553 1.77789C267.553 2.54455 268.113 3.15566 268.883 3.15566C269.652 3.15566 270.185 2.54455 270.185 1.789C270.185 1.03344 269.636 0.400108 268.877 0.400108C268.119 0.400108 267.558 1.02233 267.558 1.77789H267.553ZM268.602 2.68344H268.207V0.96122C268.36 0.927886 268.58 0.91122 268.861 0.91122C269.185 0.91122 269.328 0.96122 269.454 1.039C269.548 1.11122 269.619 1.25011 269.619 1.41678C269.619 1.60566 269.476 1.75566 269.267 1.81678V1.839C269.432 1.90011 269.526 2.02789 269.581 2.26122C269.63 2.52233 269.663 2.62789 269.707 2.69455H269.278C269.229 2.63344 269.196 2.47233 269.141 2.27233C269.108 2.08344 269.004 2.00011 268.789 2.00011H268.602V2.69455V2.68344ZM268.613 1.70566H268.8C269.02 1.70566 269.196 1.63344 269.196 1.45566C269.196 1.30011 269.08 1.19455 268.833 1.19455C268.729 1.19455 268.657 1.20566 268.613 1.21678V1.71122V1.70566Z" fill="white"/>
</g>
<defs>
<clipPath id="clip0_95_1459">
<rect width="270" height="19" fill="white" transform="translate(0.619629)"/>
</clipPath>
</defs>
</svg>
