<svg width="305" height="75" viewBox="0 0 305 75" fill="none" xmlns="http://www.w3.org/2000/svg">
<g clip-path="url(#clip0_307_2017)">
<path d="M204.764 69.117C204.764 68.5339 205.061 68.2252 205.666 68.2252H207.051C207.658 68.2252 207.897 68.5339 207.897 69.117V69.8717C207.897 71.2895 208.674 71.9183 210.148 71.9183H212.368C213.842 71.9183 214.609 71.3009 214.609 69.8717V69.2314C214.609 68.1109 214.127 67.4248 212.871 67.0132L208.651 65.6526C206.045 64.8179 204.901 63.2972 204.901 60.8046V60.3358C204.901 57.2487 206.855 55.5107 210.356 55.5107H212.185C215.682 55.5107 217.616 57.1915 217.616 60.3358V60.9418C217.616 61.5478 217.329 61.8337 216.724 61.8337H215.397C214.792 61.8337 214.493 61.5478 214.493 60.9418V60.1643C214.493 58.7694 213.74 58.1177 212.265 58.1177H210.275C208.801 58.1177 208.023 58.7694 208.023 60.1415V60.8161C208.023 61.9366 208.491 62.6112 209.761 63.0228L213.969 64.3834C216.734 65.2753 217.719 66.7731 217.719 69.2428V69.6659C217.719 72.8102 215.855 74.5138 212.368 74.5138H210.148C206.639 74.5138 204.764 72.833 204.764 69.6773L204.764 69.117Z" fill="#2BB673"/>
<path d="M224.914 67.402L219.758 56.78C219.689 56.6428 219.667 56.517 219.667 56.3912C219.667 56.0368 219.918 55.6709 220.502 55.6709H221.793C222.377 55.6709 222.617 55.9224 222.789 56.2998L225.018 61.2506C225.487 62.2797 225.966 63.343 226.469 64.6007C226.972 63.343 227.442 62.2911 227.911 61.2506L230.094 56.3684C230.29 55.9339 230.564 55.6709 231.146 55.6709H232.439C233.009 55.6709 233.25 56.0254 233.25 56.3912C233.25 56.5284 233.227 56.6542 233.146 56.8143L228.024 67.3906V73.4734C228.024 74.0794 227.739 74.3538 227.134 74.3538H225.795C225.201 74.3538 224.914 74.0794 224.914 73.4734L224.914 67.402Z" fill="#2BB673"/>
<path d="M236.021 56.5513C236.021 55.9567 236.307 55.6709 236.914 55.6709H242.802C246.323 55.6709 248.061 57.2716 248.061 60.4274V61.5365C248.061 63.6174 247.068 65.0924 245.213 65.4468C247.192 65.7899 248.061 67.1162 248.061 69.2772V73.4734C248.061 74.0794 247.764 74.3538 247.17 74.3538H245.833C245.238 74.3538 244.939 74.0794 244.939 73.4734V68.8884C244.939 67.4363 244.242 66.796 242.768 66.796H239.131V73.4734C239.131 74.0794 238.846 74.3538 238.262 74.3538H236.914C236.307 74.3538 236.021 74.0794 236.021 73.4734L236.021 56.5513ZM242.768 64.1777C244.242 64.1777 244.939 63.5374 244.939 62.0853V60.2787C244.939 58.8838 244.311 58.2549 242.835 58.2549H239.131V64.1777H242.768Z" fill="#2BB673"/>
<path d="M252.834 74.3538C252.239 74.3538 251.952 74.0794 251.952 73.4734V56.5513C251.952 55.9567 252.239 55.6709 252.834 55.6709H254.181C254.776 55.6709 255.062 55.9567 255.062 56.5513V73.4734C255.062 74.0794 254.776 74.3538 254.181 74.3538H252.834Z" fill="#2BB673"/>
<path d="M259.479 56.5856C259.479 55.9796 259.787 55.6709 260.415 55.6709H262.028C262.519 55.6709 262.772 55.8881 262.955 56.2312L267.311 64.4521C268.088 65.9156 268.764 67.2763 269.495 68.9342C269.415 67.4249 269.379 66.0986 269.379 64.6693V56.5399C269.379 55.9567 269.678 55.6709 270.283 55.6709H271.45C272.044 55.6709 272.331 55.9567 272.331 56.5399V73.4505C272.331 74.0565 272.032 74.3538 271.404 74.3538H269.791C269.288 74.3538 269.059 74.148 268.876 73.805L264.419 65.3211C263.72 63.9947 263.08 62.8399 262.326 61.0905C262.406 62.7027 262.428 63.8804 262.428 65.3211V73.4734C262.428 74.0794 262.143 74.3538 261.537 74.3538H260.369C259.764 74.3538 259.479 74.0794 259.479 73.4734V56.5856Z" fill="#2BB673"/>
<path d="M276.359 60.5759C276.359 57.2144 278.315 55.5107 281.802 55.5107H283.906C287.417 55.5107 289.36 57.2144 289.36 60.5759V61.1819C289.36 61.7765 289.074 62.0624 288.458 62.0624H287.142C286.537 62.0624 286.25 61.7765 286.25 61.1819V60.4273C286.25 58.9295 285.45 58.1863 283.986 58.1863H281.735C280.259 58.1863 279.482 58.9295 279.482 60.4273V69.5973C279.482 71.0951 280.259 71.8383 281.735 71.8383H283.986C285.45 71.8383 286.25 71.0951 286.25 69.5973V67.402H283.575C282.97 67.402 282.683 67.1047 282.683 66.5101V65.6754C282.683 65.0809 282.97 64.795 283.575 64.795H288.458C289.074 64.795 289.36 65.0809 289.36 65.6754V69.4486C289.36 72.8102 287.417 74.5138 283.906 74.5138H281.802C278.315 74.5138 276.359 72.8102 276.359 69.4486V60.5759Z" fill="#2BB673"/>
<path d="M293.39 56.5399C293.39 55.9567 293.686 55.6709 294.28 55.6709H303.086C303.691 55.6709 303.989 55.9567 303.989 56.5513V57.386C303.989 57.992 303.691 58.2664 303.086 58.2664H296.511V63.5946H303.086C303.691 63.5946 303.989 63.8804 303.989 64.475V65.2982C303.989 65.9042 303.691 66.2015 303.086 66.2015H296.511V71.7583H303.086C303.691 71.7583 303.989 72.0442 303.989 72.6387V73.4734C303.989 74.0794 303.691 74.3538 303.086 74.3538H294.28C293.686 74.3538 293.39 74.0794 293.39 73.4734V56.5399Z" fill="#2BB673"/>
<path d="M72.4891 37.7052C68.3578 33.5154 66.3262 28.3122 66.3262 22.0907C66.3262 15.8644 68.3578 10.6613 72.4891 6.52989C76.6156 2.34492 81.8822 0.25 88.1669 0.25C91.9329 0.25 95.465 1.14642 98.6951 2.94416C101.925 4.73703 104.439 7.12913 106.295 10.1838L97.0192 15.5088C95.4065 12.5759 92.0547 10.7197 88.1669 10.7197C84.815 10.7197 82.1209 11.7964 80.026 13.8913C77.9944 15.9862 76.9762 18.6804 76.9762 22.0907C76.9762 25.5011 77.9944 28.2537 80.026 30.3437C82.1209 32.4387 84.815 33.4569 88.1669 33.4569C92.0547 33.4569 95.4065 31.664 97.0192 28.6093L106.295 33.9977C102.646 40.1606 95.8255 43.9266 88.1669 43.9266C81.8822 43.9266 76.6156 41.8317 72.4891 37.7052Z" fill="#6D6E71"/>
<path d="M132.642 1.14746H143.292V43.0312H132.642V26.9344H120.857V43.0312H110.144V1.14746H120.857V16.645H132.642V1.14746Z" fill="#6D6E71"/>
<path d="M175.51 43.0312L173.713 36.9901H159.774L157.976 43.0312H146.372L160.193 1.14746H173.235L187.057 43.0312H175.51ZM162.527 27.7724H170.96L166.712 13.5318L162.527 27.7724Z" fill="#6D6E71"/>
<path d="M213.224 1.14746H223.874V43.0312H215.616L200.84 21.97V43.0312H190.126V1.14746H198.447L213.224 22.2087L213.224 1.14746Z" fill="#6D6E71"/>
<path d="M272.12 19.0361V23.2844C272.12 29.4473 270.206 34.4118 266.318 38.2411C262.489 42.012 257.519 43.9266 251.356 43.9266C244.838 43.9266 239.449 41.8317 235.201 37.6467C231.016 33.4569 228.921 28.3122 228.921 22.1492C228.921 15.9863 231.016 10.8415 235.201 6.59322C239.391 2.34492 244.599 0.25 250.762 0.25C254.65 0.25 258.24 1.14642 261.47 2.88083C264.759 4.61522 267.273 6.94886 269.129 9.88175L260.033 15.0898C258.357 12.4541 254.947 10.7197 250.879 10.7197C247.59 10.7197 244.838 11.7964 242.743 13.9498C240.648 16.1032 239.571 18.8558 239.571 22.2077C239.571 25.4377 240.589 28.1904 242.684 30.4071C244.774 32.6189 247.766 33.7541 251.537 33.7541C256.384 33.7541 259.614 31.9027 261.168 28.2537H251.001V19.0361L272.12 19.0361Z" fill="#6D6E71"/>
<path d="M287.823 32.9805H304.036V43.0312H277.109V1.14746H303.739V11.1397H287.823V16.9422H302.243V26.8175H287.823V32.9805Z" fill="#6D6E71"/>
<path d="M11.4249 11.1388H27.3414V1.14648H0.711548V11.1388H11.4249Z" fill="#6D6E71"/>
<path d="M0.711548 16.9414V26.8104H48.3271V16.9414H11.4249H0.711548Z" fill="#6D6E71"/>
<path d="M27.3414 32.9805H11.4249H0.711548V43.0312H27.6386V32.9805H27.3414Z" fill="#6D6E71"/>
<path d="M55.9241 1.14746L43.8369 21.7313L56.4015 43.0312H68.4303L55.8023 21.6728L67.948 1.14746H55.9241Z" fill="url(#paint0_linear_307_2017)"/>
<path d="M42.2542 1.14746L54.3414 21.7313L41.7768 43.0312H29.748L42.376 21.6728L30.2304 1.14746H42.2542Z" fill="#6D6E71"/>
<path d="M198.655 71.71H0.711426V74.1911H198.655V71.71Z" fill="#2BB673"/>
</g>
<defs>
<linearGradient id="paint0_linear_307_2017" x1="68.6088" y1="22.0893" x2="43.1479" y2="22.0893" gradientUnits="userSpaceOnUse">
<stop offset="0.11012" stop-color="#6D6E71"/>
<stop offset="1"/>
</linearGradient>
<clipPath id="clip0_307_2017">
<rect width="303.325" height="74.2635" fill="white" transform="translate(0.711426 0.25)"/>
</clipPath>
</defs>
</svg>
