<svg width="294" height="72" viewBox="0 0 294 72" fill="none" xmlns="http://www.w3.org/2000/svg">
<g clip-path="url(#clip0_308_2571)">
<path d="M188.7 54.3304C188.7 53.7659 188.986 53.4893 189.561 53.4893H198.085C198.671 53.4893 198.958 53.7659 198.958 54.3414V55.1493C198.958 55.7359 198.671 56.0015 198.085 56.0015H191.72V61.3359H198.085C198.671 61.3359 198.958 61.6125 198.958 62.1991V62.9959C198.958 63.5825 198.671 63.8592 198.085 63.8592H191.72V70.7208C191.72 71.2963 191.433 71.573 190.845 71.573H189.561C188.986 71.573 188.7 71.2963 188.7 70.7208V54.3304Z" fill="#27AAE1"/>
<path d="M202.028 58.2367C202.028 54.983 203.92 53.334 207.296 53.334H209.409C212.796 53.334 214.689 54.983 214.689 58.2367V66.8248C214.689 70.0785 212.796 71.7275 209.409 71.7275H207.296C203.92 71.7275 202.028 70.0785 202.028 66.8248V58.2367ZM209.486 69.1378C210.902 69.1378 211.667 68.4185 211.667 66.9687V58.0928C211.667 56.6431 210.902 55.9237 209.486 55.9237H207.228C205.801 55.9237 205.049 56.6431 205.049 58.0928V66.9687C205.049 68.4185 205.801 69.1378 207.228 69.1378H209.486Z" fill="#27AAE1"/>
<path d="M218.578 54.3414C218.578 53.7659 218.854 53.4893 219.439 53.4893H225.14C228.548 53.4893 230.231 55.0387 230.231 58.0932V59.1667C230.231 61.1809 229.267 62.6086 227.476 62.9516C229.389 63.2837 230.231 64.5674 230.231 66.6591V70.7208C230.231 71.3073 229.943 71.5729 229.367 71.5729H228.072C227.496 71.5729 227.21 71.3073 227.21 70.7208V66.2828C227.21 64.8773 226.534 64.2576 225.106 64.2576H221.588V70.7208C221.588 71.3073 221.31 71.5729 220.747 71.5729H219.439C218.854 71.5729 218.578 71.3073 218.578 70.7208V54.3414ZM225.106 61.7232C226.534 61.7232 227.21 61.1034 227.21 59.6979V57.9493C227.21 56.5991 226.601 55.9904 225.174 55.9904H221.588V61.7232H225.106Z" fill="#27AAE1"/>
<path d="M239.854 54.3304C239.854 53.7659 240.14 53.4893 240.715 53.4893H249.239C249.824 53.4893 250.112 53.7659 250.112 54.3414V55.1493C250.112 55.7359 249.824 56.0015 249.239 56.0015H242.874V61.3359H249.239C249.824 61.3359 250.112 61.6125 250.112 62.1991V62.9959C250.112 63.5825 249.824 63.8592 249.239 63.8592H242.874V70.7208C242.874 71.2963 242.587 71.573 241.999 71.573H240.715C240.14 71.573 239.854 71.2963 239.854 70.7208V54.3304Z" fill="#27AAE1"/>
<path d="M253.468 54.3414C253.468 53.7659 253.746 53.4893 254.333 53.4893H260.032C263.44 53.4893 265.123 55.0387 265.123 58.0932V59.1667C265.123 61.1809 264.161 62.6086 262.366 62.9516C264.282 63.2837 265.123 64.5674 265.123 66.6591V70.7208C265.123 71.3073 264.835 71.5729 264.259 71.5729H262.965C262.39 71.5729 262.1 71.3073 262.1 70.7208V66.2828C262.1 64.8773 261.426 64.2576 259.999 64.2576H256.478V70.7208C256.478 71.3073 256.203 71.5729 255.637 71.5729H254.333C253.746 71.5729 253.468 71.3073 253.468 70.7208V54.3414ZM259.999 61.7232C261.426 61.7232 262.1 61.1034 262.1 59.6979V57.9493C262.1 56.5991 261.493 55.9904 260.064 55.9904H256.478V61.7232H259.999Z" fill="#27AAE1"/>
<path d="M268.788 54.3304C268.788 53.7659 269.078 53.4893 269.653 53.4893H278.173C278.761 53.4893 279.049 53.7659 279.049 54.3414V55.1493C279.049 55.7359 278.761 56.0015 278.173 56.0015H271.811V61.1588H278.173C278.761 61.1588 279.049 61.4355 279.049 62.0109V62.8078C279.049 63.3943 278.761 63.6821 278.173 63.6821H271.811V69.0607H278.173C278.761 69.0607 279.049 69.3374 279.049 69.9129V70.7208C279.049 71.3073 278.761 71.5729 278.173 71.5729H269.653C269.078 71.5729 268.788 71.3073 268.788 70.7208V54.3304Z" fill="#27AAE1"/>
<path d="M282.992 54.3304C282.992 53.7659 283.281 53.4893 283.857 53.4893H292.377C292.964 53.4893 293.252 53.7659 293.252 54.3414V55.1493C293.252 55.7359 292.964 56.0015 292.377 56.0015H286.014V61.1588H292.377C292.964 61.1588 293.252 61.4355 293.252 62.0109V62.8078C293.252 63.3943 292.964 63.6821 292.377 63.6821H286.014V69.0607H292.377C292.964 69.0607 293.252 69.3374 293.252 69.9129V70.7208C293.252 71.3073 292.964 71.5729 292.377 71.5729H283.857C283.281 71.5729 282.992 71.3073 282.992 70.7208V54.3304Z" fill="#27AAE1"/>
<path d="M69.4754 36.2538C65.4765 32.1984 63.5101 27.1621 63.5101 21.1402C63.5101 15.1136 65.4765 10.0773 69.4754 6.07846C73.4696 2.02772 78.5672 0 84.6503 0C88.2955 0 91.7144 0.867669 94.8408 2.60775C97.9673 4.3431 100.401 6.65849 102.197 9.61518L93.2186 14.7694C91.6578 11.9306 88.4134 10.1339 84.6503 10.1339C81.406 10.1339 78.7982 11.1761 76.7705 13.2038C74.8041 15.2315 73.8185 17.8393 73.8185 21.1402C73.8185 24.4411 74.8041 27.1055 76.7705 29.1285C78.7982 31.1562 81.406 32.1418 84.6503 32.1418C88.4134 32.1418 91.6578 30.4064 93.2186 27.4497L102.197 32.6652C98.6652 38.6305 92.0633 42.2757 84.6503 42.2757C78.5672 42.2757 73.4696 40.248 69.4754 36.2538Z" fill="#6D6E71"/>
<path d="M127.699 0.868164H138.008V41.4085H127.699V25.828H116.292V41.4085H105.923V0.868164H116.292V15.8686H127.699V0.868164Z" fill="#6D6E71"/>
<path d="M169.192 41.4085L167.452 35.5611H153.961L152.221 41.4085H140.988L154.366 0.868164H166.99L180.368 41.4085H169.192ZM156.625 26.6391H164.788L160.676 12.8553L156.625 26.6391Z" fill="#6D6E71"/>
<path d="M205.696 0.868164H216.004V41.4085H208.011L193.709 21.0228V41.4085H183.339V0.868164H191.394L205.696 21.2539L205.696 0.868164Z" fill="#6D6E71"/>
<path d="M262.704 18.1835V22.2955C262.704 28.2608 260.85 33.0661 257.087 36.7726C253.381 40.4225 248.571 42.2757 242.606 42.2757C236.296 42.2757 231.081 40.248 226.968 36.1972C222.918 32.1418 220.89 27.1621 220.89 21.1968C220.89 15.2315 222.918 10.2518 226.968 6.13976C231.024 2.02772 236.065 0 242.03 0C245.793 0 249.269 0.867669 252.395 2.54645C255.578 4.22521 258.012 6.484 259.808 9.32281L251.004 14.3638C249.382 11.8127 246.081 10.1339 242.143 10.1339C238.96 10.1339 236.296 11.176 234.268 13.2604C232.241 15.3447 231.198 18.009 231.198 21.2534C231.198 24.3799 232.184 27.0442 234.212 29.1898C236.235 31.3307 239.13 32.4294 242.78 32.4294C247.472 32.4294 250.599 30.6375 252.103 27.1055H242.261V18.1835L262.704 18.1835Z" fill="#6D6E71"/>
<path d="M277.902 31.6801H293.596V41.4085H267.532V0.868164H293.308V10.5399H277.902V16.1563H291.86V25.7149H277.902V31.6801Z" fill="#6D6E71"/>
<path d="M10.3697 10.5399H25.7757V0.868164H0V10.5399H10.3697Z" fill="#6D6E71"/>
<path d="M0 16.1562V25.7087H46.0883V16.1562H10.3697H0Z" fill="#6D6E71"/>
<path d="M25.7757 31.6807H10.3697H0V41.409H26.0633V31.6807H25.7757Z" fill="#6D6E71"/>
<path d="M53.4417 0.868164L41.7422 20.7917L53.9038 41.4085H65.5467L53.3238 20.7352L65.0799 0.868164H53.4417Z" fill="url(#paint0_linear_308_2571)"/>
<path d="M40.2103 0.868164L51.9098 20.7917L39.7481 41.4085H28.1052L40.3282 20.7352L28.5721 0.868164H40.2103Z" fill="#6D6E71"/>
<path d="M183.926 69.168H0V71.5695H183.926V69.168Z" fill="#27AAE1"/>
</g>
<defs>
<linearGradient id="paint0_linear_308_2571" x1="65.7195" y1="21.1383" x2="41.0752" y2="21.1383" gradientUnits="userSpaceOnUse">
<stop offset="0.11012" stop-color="#6D6E71"/>
<stop offset="1"/>
</linearGradient>
<clipPath id="clip0_308_2571">
<rect width="293.596" height="71.7266" fill="white"/>
</clipPath>
</defs>
</svg>
