<?xml version="1.0" standalone="no"?>
<!DOCTYPE svg PUBLIC "-//W3C//DTD SVG 20010904//EN"
 "http://www.w3.org/TR/2001/REC-SVG-20010904/DTD/svg10.dtd">
<svg version="1.0" xmlns="http://www.w3.org/2000/svg"
 width="260.000000pt" height="260.000000pt" viewBox="0 0 260.000000 260.000000"
 preserveAspectRatio="xMidYMid meet">
<metadata>
Created by potrace 1.14, written by Peter Selinger 2001-2017
</metadata>
<g transform="translate(0.000000,260.000000) scale(0.100000,-0.100000)"
fill="#000000" stroke="none">
<path d="M1513 2541 c-279 -140 -490 -353 -632 -638 -96 -191 -136 -371 -135
-613 0 -238 39 -411 139 -611 142 -287 392 -531 669 -653 76 -34 104 -34 116
0 12 29 13 204 2 220 -10 16 -108 64 -116 57 -3 -4 -6 -19 -6 -34 0 -15 -7
-35 -16 -43 -20 -20 -41 -10 -151 73 -230 174 -388 413 -460 696 -34 136 -43
378 -19 510 34 182 113 373 213 513 95 133 271 295 384 353 l39 19 0 -55 c0
-64 11 -69 70 -34 56 33 60 43 60 157 0 97 -9 142 -30 142 -5 0 -62 -27 -127
-59z"/>
<path d="M1582 2193 c-263 -161 -452 -451 -493 -759 -24 -180 4 -386 76 -556
73 -172 227 -357 380 -457 84 -55 109 -61 125 -32 11 22 13 889 1 931 -6 22
-13 25 -56 28 -38 3 -52 -1 -62 -14 -10 -14 -13 -98 -13 -366 0 -288 -2 -348
-14 -348 -34 0 -160 164 -215 280 -68 141 -84 220 -84 400 0 140 2 163 27 245
46 153 147 319 255 419 l31 30 0 -60 c0 -70 10 -84 61 -84 72 0 69 -8 69 196
0 146 -3 184 -13 184 -7 0 -41 -17 -75 -37z"/>
</g>
</svg>
